Coordinates
version=1
nRows=13
nColumns=40
inDegrees=yes

Units are S.I. units (second, meters, Newtons, ...)
If the header above contains a line with 'inDegrees', this indicates whether rotational values are in degrees (yes) or radians (no).

endheader
time	pelvis_tilt	pelvis_list	pelvis_rotation	pelvis_tx	pelvis_ty	pelvis_tz	hip_flexion_r	hip_adduction_r	hip_rotation_r	knee_angle_r	knee_angle_r_beta	ankle_angle_r	subtalar_angle_r	mtp_angle_r	hip_flexion_l	hip_adduction_l	hip_rotation_l	knee_angle_l	knee_angle_l_beta	ankle_angle_l	subtalar_angle_l	mtp_angle_l	lumbar_extension	lumbar_bending	lumbar_rotation	arm_flex_r	arm_add_r	arm_rot_r	elbow_flex_r	pro_sup_r	wrist_flex_r	wrist_dev_r	arm_flex_l	arm_add_l	arm_rot_l	elbow_flex_l	pro_sup_l	wrist_flex_l	wrist_dev_l
      1.50000000	     14.83315267	      0.01026624	      0.97418270	     -0.24495748	      1.06652139	     -1.06155078	     -1.55931358	     -1.06219133	      1.23156790	     18.92917486	      0.33037643	      0.07853101	      0.00000000	      0.00000000	    -11.40579300	      3.30346631	     -7.00677282	     14.24204898	      0.24857065	     -0.55699734	      0.00000000	      0.00000000	    -22.50400180	     -2.82157724	      5.23103246	     10.17333077	     -7.53908631	      1.40819014	     39.79410616	     85.71698116	      0.00000000	      0.00000000	     20.79971932	    -19.75021598	     37.81577926	     38.90282137	     87.08239604	      0.00000000	      0.00000000
      1.50500000	     14.86652773	      0.01749378	      0.89075934	     -0.24555151	      1.06660507	     -1.06164033	     -1.34345297	     -1.01724366	      1.72161167	     18.94892153	      0.33072107	      0.24446244	      0.00000000	      0.00000000	    -11.38366975	      3.33390968	     -7.11102360	     14.33002908	      0.25010619	     -0.72335365	      0.00000000	      0.00000000	    -22.51645551	     -2.87423133	      5.16132394	     10.54852648	     -7.71440153	      2.25509265	     39.87030780	     84.92810456	      0.00000000	      0.00000000	     21.31564924	    -19.98455885	     38.42873488	     38.99570519	     87.23015697	      0.00000000	      0.00000000
      1.51000000	     14.84339269	     -0.04357186	      0.90483236	     -0.24592397	      1.06665777	     -1.06179775	     -1.11779530	     -0.91004057	      1.77388478	     18.83634855	      0.32875630	      0.29469678	      0.00000000	      0.00000000	    -11.33297051	      3.27334064	     -7.10384724	     14.32582698	      0.25003285	     -0.74185418	      0.00000000	      0.00000000	    -22.47233962	     -2.82320265	      5.12610336	     10.88085726	     -7.62133175	      1.93602978	     39.79656818	     85.74795034	      0.00000000	      0.00000000	     21.75499352	    -19.94553036	     38.54548359	     38.86070867	     87.14383213	      0.00000000	      0.00000000
      1.51500000	     14.84967260	     -0.08941652	      0.88256527	     -0.24639555	      1.06670119	     -1.06188923	     -0.94047698	     -0.80265747	      2.09244334	     18.65079215	      0.32551773	      0.38580849	      0.00000000	      0.00000000	    -11.29236614	      3.22709166	     -7.17358336	     14.35651410	      0.25056844	     -0.77014561	      0.00000000	      0.00000000	    -22.46403607	     -2.79959682	      5.09494365	     11.23320576	     -7.63929526	      2.13375957	     39.80300615	     85.49279929	      0.00000000	      0.00000000	     22.31055731	    -19.98963037	     38.92167851	     38.76287942	     87.17014800	      0.00000000	      0.00000000
      1.52000000	     14.90124954	     -0.10978557	      0.84599364	     -0.24678523	      1.06689747	     -1.06197680	     -0.87722036	     -0.72048578	      2.43901763	     18.31446990	      0.31964780	      0.48565291	      0.00000000	      0.00000000	    -11.32511987	      3.21768427	     -7.26138041	     14.35915871	      0.25061460	     -0.83175227	      0.00000000	      0.00000000	    -22.50352156	     -2.81529306	      5.12428069	     11.48207406	     -7.74301131	      2.34142578	     40.03908190	     85.80196378	      0.00000000	      0.00000000	     22.90252066	    -20.08101769	     39.54724842	     38.72422920	     87.12952134	      0.00000000	      0.00000000
      1.52500000	     14.95045097	     -0.13644768	      0.79509183	     -0.24714902	      1.06703524	     -1.06203617	     -0.74181466	     -0.64210012	      2.72521832	     18.09897214	      0.31588666	      0.55715414	      0.00000000	      0.00000000	    -11.37582043	      3.20243668	     -7.31752482	     14.29260646	      0.24945304	     -0.92705418	      0.00000000	      0.00000000	    -22.51310448	     -2.82246735	      5.10160669	     11.89370408	     -7.81443772	      2.86442440	     39.96415411	     85.46235711	      0.00000000	      0.00000000	     23.47225426	    -20.12435725	     39.93636143	     38.66158092	     87.19276044	      0.00000000	      0.00000000
      1.53000000	     14.96717473	     -0.17059271	      1.02926921	     -0.24788765	      1.06711736	     -1.06267258	     -0.59581596	     -0.59622319	      2.64917534	     17.78036016	      0.31032583	      0.67101147	      0.00000000	      0.00000000	    -11.27462338	      3.13642476	     -7.08329899	     14.44301884	      0.25207823	     -0.88544825	      0.00000000	      0.00000000	    -22.54889947	     -2.71172821	      4.94417078	     12.23433103	     -7.92213598	      2.97947573	     40.10808651	     85.45683660	      0.00000000	      0.00000000	     24.17589874	    -20.11186164	     40.40558294	     38.53974896	     87.22405315	      0.00000000	      0.00000000
      1.53500000	     15.01783349	     -0.15074065	      1.11045367	     -0.24849863	      1.06731876	     -1.06301193	     -0.51370749	     -0.57252299	      2.84820966	     17.37685098	      0.30328326	      0.63944718	      0.00000000	      0.00000000	    -11.24837508	      3.14282195	     -7.08883776	     14.52334815	      0.25348024	     -0.96597898	      0.00000000	      0.00000000	    -22.59233406	     -2.71141563	      4.78546070	     12.60417351	     -8.10969864	      3.77709379	     40.30590083	     84.97673371	      0.00000000	      0.00000000	     24.83424702	    -20.26719867	     41.11486174	     38.57112201	     87.30316231	      0.00000000	      0.00000000
      1.54000000	     14.96553085	     -0.17548923	      1.05424985	     -0.24890436	      1.06737620	     -1.06307139	     -0.28660626	     -0.49758879	      3.09753385	     16.95632084	      0.29594363	      0.58707915	      0.00000000	      0.00000000	    -11.18707438	      3.13190265	     -7.14385170	     14.46836528	      0.25252061	     -1.06198986	      0.00000000	      0.00000000	    -22.52881579	     -2.72590122	      4.83643994	     12.94550137	     -8.17692740	      3.85078110	     40.45797087	     85.80151813	      0.00000000	      0.00000000	     25.38277819	    -20.26354837	     41.29586750	     38.55086593	     87.09900297	      0.00000000	      0.00000000
      1.54500000	     14.95361804	     -0.20194363	      1.02048208	     -0.24940539	      1.06747862	     -1.06315533	     -0.10150436	     -0.43949769	      3.30997350	     16.56009539	      0.28902819	      0.61521346	      0.00000000	      0.00000000	    -11.10587476	      3.10464672	     -7.23310936	     14.54322967	      0.25382724	     -1.11136515	      0.00000000	      0.00000000	    -22.49105109	     -2.72170378	      4.75486283	     13.34580804	     -8.29903468	      4.41225759	     40.63515074	     85.75172405	      0.00000000	      0.00000000	     25.96033315	    -20.35652503	     41.58383296	     38.54325963	     87.10026442	      0.00000000	      0.00000000
      1.55000000	     14.95105895	     -0.23281780	      1.04525276	     -0.24986946	      1.06758962	     -1.06337544	      0.04617133	     -0.37685660	      3.38995248	     16.10983259	      0.28116962	      0.62311190	      0.00000000	      0.00000000	    -11.08038235	      3.07746490	     -7.21641996	     14.52536204	      0.25351539	     -1.15110831	      0.00000000	      0.00000000	    -22.47583248	     -2.69981843	      4.75254164	     13.69764772	     -8.45439282	      4.82076094	     40.85048989	     85.90857774	      0.00000000	      0.00000000	     26.66099761	    -20.39090519	     42.16970492	     38.51222573	     87.02161303	      0.00000000	      0.00000000
      1.55500000	     14.92786185	     -0.26769851	      1.06727662	     -0.25036541	      1.06768110	     -1.06352645	      0.21256987	     -0.31470966	      3.57950694	     15.62803658	      0.27276069	      0.56674762	      0.00000000	      0.00000000	    -10.98373748	      3.03083940	     -7.21255213	     14.60786513	      0.25495534	     -1.17857515	      0.00000000	      0.00000000	    -22.41887499	     -2.65969518	      4.55835411	     14.23255009	     -8.61758939	      5.83386089	     40.91094723	     85.41969815	      0.00000000	      0.00000000	     27.18873402	    -20.55886470	     42.34106531	     38.65719208	     87.13837724	      0.00000000	      0.00000000
      1.56000000	     14.94430434	     -0.27085076	      1.05134137	     -0.25086767	      1.06775845	     -1.06362462	      0.49620607	     -0.29181743	      3.56449677	     15.46294206	      0.26987925	      0.59343403	      0.00000000	      0.00000000	    -10.98322692	      3.03474647	     -7.24461984	     14.57915612	      0.25445428	     -1.18324519	      0.00000000	      0.00000000	    -22.44040646	     -2.67143128	      4.51790781	     14.65876739	     -8.59064044	      5.85869252	     41.11035685	     85.44892293	      0.00000000	      0.00000000	     27.74215580	    -20.57006051	     42.23060403	     38.75992665	     87.10906710	      0.00000000	      0.00000000
